<svg width="2505" height="512" viewBox="0 0 2505 512" fill="none" xmlns="http://www.w3.org/2000/svg">
<rect width="512" height="512" rx="125" fill="#161619"/>
<path d="M256.233 306H166V266H346.465L246.207 386L256.233 306Z" fill="white" stroke="white" stroke-width="20" stroke-linecap="round" stroke-linejoin="round"/>
<path d="M256.233 306H166V266H346.465L246.207 386L256.233 306Z" fill="white" stroke="white" stroke-width="20" stroke-linecap="round" stroke-linejoin="round"/>
<circle cx="256" cy="176" r="50" fill="white"/>
<path d="M826.276 146.818H859.301V290.32C859.301 305.589 855.714 319.119 848.541 330.909C841.368 342.628 831.283 351.861 818.286 358.608C805.288 365.284 790.054 368.622 772.582 368.622C755.182 368.622 739.983 365.284 726.986 358.608C713.989 351.861 703.903 342.628 696.73 330.909C689.557 319.119 685.97 305.589 685.97 290.32V146.818H718.889V287.656C718.889 297.528 721.055 306.3 725.388 313.97C729.791 321.641 736.006 327.678 744.031 332.081C752.057 336.413 761.574 338.58 772.582 338.58C783.662 338.58 793.214 336.413 801.24 332.081C809.337 327.678 815.516 321.641 819.777 313.97C824.109 306.3 826.276 297.528 826.276 287.656V146.818ZM1012.23 241.314L983.355 246.428C982.147 242.734 980.23 239.219 977.602 235.881C975.045 232.543 971.565 229.808 967.162 227.678C962.758 225.547 957.254 224.482 950.649 224.482C941.629 224.482 934.1 226.506 928.064 230.554C922.027 234.531 919.008 239.68 919.008 246.001C919.008 251.47 921.032 255.874 925.081 259.212C929.129 262.55 935.663 265.284 944.683 267.415L970.677 273.381C985.734 276.861 996.956 282.223 1004.34 289.467C1011.73 296.712 1015.42 306.122 1015.42 317.699C1015.42 327.5 1012.58 336.236 1006.9 343.906C1001.29 351.506 993.44 357.472 983.355 361.804C973.341 366.136 961.728 368.303 948.518 368.303C930.194 368.303 915.244 364.396 903.667 356.584C892.091 348.7 884.988 337.514 882.36 323.026L913.149 318.338C915.066 326.364 919.008 332.436 924.974 336.555C930.94 340.604 938.717 342.628 948.305 342.628C958.745 342.628 967.091 340.462 973.341 336.129C979.591 331.726 982.716 326.364 982.716 320.043C982.716 314.929 980.798 310.632 976.963 307.152C973.199 303.672 967.41 301.044 959.598 299.268L931.899 293.196C916.629 289.716 905.336 284.176 898.021 276.577C890.777 268.977 887.154 259.354 887.154 247.706C887.154 238.047 889.853 229.595 895.251 222.351C900.649 215.107 908.106 209.46 917.623 205.412C927.14 201.293 938.042 199.233 950.329 199.233C968.014 199.233 981.934 203.068 992.091 210.739C1002.25 218.338 1008.96 228.53 1012.23 241.314ZM1105.97 368.303C1089.85 368.303 1075.96 364.858 1064.32 357.969C1052.74 351.009 1043.79 341.243 1037.47 328.672C1031.22 316.03 1028.09 301.222 1028.09 284.247C1028.09 267.486 1031.22 252.713 1037.47 239.929C1043.79 227.145 1052.6 217.166 1063.89 209.993C1075.25 202.82 1088.53 199.233 1103.73 199.233C1112.97 199.233 1121.91 200.76 1130.58 203.814C1139.24 206.868 1147.02 211.662 1153.91 218.196C1160.8 224.73 1166.23 233.217 1170.21 243.658C1174.19 254.027 1176.18 266.634 1176.18 281.477V292.77H1046.1V268.906H1144.96C1144.96 260.526 1143.26 253.104 1139.85 246.641C1136.44 240.107 1131.64 234.957 1125.47 231.193C1119.36 227.429 1112.18 225.547 1103.95 225.547C1095 225.547 1087.18 227.749 1080.51 232.152C1073.9 236.484 1068.79 242.166 1065.17 249.197C1061.62 256.158 1059.84 263.722 1059.84 271.889V290.533C1059.84 301.47 1061.76 310.774 1065.59 318.445C1069.5 326.115 1074.93 331.974 1081.89 336.023C1088.85 340 1096.99 341.989 1106.29 341.989C1112.33 341.989 1117.83 341.136 1122.8 339.432C1127.77 337.656 1132.07 335.028 1135.69 331.548C1139.32 328.068 1142.09 323.771 1144 318.658L1174.15 324.091C1171.74 332.969 1167.4 340.746 1161.15 347.422C1154.98 354.027 1147.2 359.176 1137.82 362.869C1128.52 366.491 1117.9 368.303 1105.97 368.303ZM1196.52 365V201.364H1227.31V227.358H1229.01C1231.99 218.551 1237.25 211.626 1244.78 206.584C1252.38 201.47 1260.97 198.913 1270.56 198.913C1272.55 198.913 1274.89 198.984 1277.59 199.126C1280.36 199.268 1282.53 199.446 1284.09 199.659V230.128C1282.81 229.773 1280.54 229.382 1277.27 228.956C1274 228.459 1270.74 228.21 1267.47 228.21C1259.94 228.21 1253.23 229.808 1247.34 233.004C1241.51 236.129 1236.9 240.497 1233.49 246.108C1230.08 251.648 1228.37 257.969 1228.37 265.071V365H1196.52ZM1328.51 146.818V365H1296.66V146.818H1328.51ZM1425.29 368.303C1409.95 368.303 1396.56 364.787 1385.13 357.756C1373.69 350.724 1364.81 340.888 1358.49 328.246C1352.17 315.604 1349.01 300.831 1349.01 283.928C1349.01 266.953 1352.17 252.109 1358.49 239.396C1364.81 226.683 1373.69 216.811 1385.13 209.78C1396.56 202.749 1409.95 199.233 1425.29 199.233C1440.63 199.233 1454.02 202.749 1465.45 209.78C1476.89 216.811 1485.77 226.683 1492.09 239.396C1498.41 252.109 1501.57 266.953 1501.57 283.928C1501.57 300.831 1498.41 315.604 1492.09 328.246C1485.77 340.888 1476.89 350.724 1465.45 357.756C1454.02 364.787 1440.63 368.303 1425.29 368.303ZM1425.4 341.562C1435.34 341.562 1443.58 338.935 1450.11 333.679C1456.65 328.423 1461.48 321.428 1464.6 312.692C1467.8 303.956 1469.4 294.332 1469.4 283.821C1469.4 273.381 1467.8 263.793 1464.6 255.057C1461.48 246.25 1456.65 239.183 1450.11 233.857C1443.58 228.53 1435.34 225.866 1425.4 225.866C1415.38 225.866 1407.07 228.53 1400.47 233.857C1393.93 239.183 1389.07 246.25 1385.87 255.057C1382.75 263.793 1381.19 273.381 1381.19 283.821C1381.19 294.332 1382.75 303.956 1385.87 312.692C1389.07 321.428 1393.93 328.423 1400.47 333.679C1407.07 338.935 1415.38 341.562 1425.4 341.562ZM1591.05 368.303C1575.71 368.303 1562.32 364.787 1550.89 357.756C1539.45 350.724 1530.58 340.888 1524.25 328.246C1517.93 315.604 1514.77 300.831 1514.77 283.928C1514.77 266.953 1517.93 252.109 1524.25 239.396C1530.58 226.683 1539.45 216.811 1550.89 209.78C1562.32 202.749 1575.71 199.233 1591.05 199.233C1606.39 199.233 1619.78 202.749 1631.22 209.78C1642.65 216.811 1651.53 226.683 1657.85 239.396C1664.17 252.109 1667.33 266.953 1667.33 283.928C1667.33 300.831 1664.17 315.604 1657.85 328.246C1651.53 340.888 1642.65 350.724 1631.22 357.756C1619.78 364.787 1606.39 368.303 1591.05 368.303ZM1591.16 341.562C1601.1 341.562 1609.34 338.935 1615.87 333.679C1622.41 328.423 1627.24 321.428 1630.36 312.692C1633.56 303.956 1635.16 294.332 1635.16 283.821C1635.16 273.381 1633.56 263.793 1630.36 255.057C1627.24 246.25 1622.41 239.183 1615.87 233.857C1609.34 228.53 1601.1 225.866 1591.16 225.866C1581.14 225.866 1572.83 228.53 1566.23 233.857C1559.7 239.183 1554.83 246.25 1551.63 255.057C1548.51 263.793 1546.95 273.381 1546.95 283.821C1546.95 294.332 1548.51 303.956 1551.63 312.692C1554.83 321.428 1559.7 328.423 1566.23 333.679C1572.83 338.935 1581.14 341.562 1591.16 341.562ZM1687.89 426.364V201.364H1718.99V227.891H1721.66C1723.5 224.482 1726.17 220.54 1729.65 216.065C1733.13 211.591 1737.96 207.685 1744.14 204.347C1750.31 200.938 1758.48 199.233 1768.64 199.233C1781.85 199.233 1793.64 202.571 1804.01 209.247C1814.38 215.923 1822.51 225.547 1828.4 238.118C1834.37 250.689 1837.35 265.817 1837.35 283.501C1837.35 301.186 1834.41 316.349 1828.51 328.991C1822.62 341.562 1814.52 351.257 1804.22 358.075C1793.92 364.822 1782.17 368.196 1768.96 368.196C1759.02 368.196 1750.88 366.527 1744.56 363.189C1738.31 359.851 1733.41 355.945 1729.86 351.47C1726.31 346.996 1723.57 343.018 1721.66 339.538H1719.74V426.364H1687.89ZM1719.1 283.182C1719.1 294.687 1720.77 304.773 1724.11 313.438C1727.45 322.102 1732.28 328.885 1738.6 333.786C1744.92 338.615 1752.66 341.03 1761.82 341.03C1771.34 341.03 1779.29 338.509 1785.68 333.466C1792.08 328.352 1796.91 321.428 1800.17 312.692C1803.51 303.956 1805.18 294.119 1805.18 283.182C1805.18 272.386 1803.55 262.692 1800.28 254.098C1797.08 245.504 1792.25 238.722 1785.79 233.75C1779.4 228.778 1771.41 226.293 1761.82 226.293C1752.59 226.293 1744.78 228.672 1738.38 233.43C1732.06 238.189 1727.27 244.83 1724 253.352C1720.73 261.875 1719.1 271.818 1719.1 283.182Z" fill="#161619"/>
<path d="M1928.42 365V146.818H2004.7C2019.9 146.818 2032.43 149.446 2042.31 154.702C2052.18 159.886 2059.53 166.882 2064.36 175.689C2069.19 184.425 2071.6 194.119 2071.6 204.773C2071.6 214.148 2069.93 221.889 2066.6 227.997C2063.33 234.105 2059 238.935 2053.6 242.486C2048.27 246.037 2042.48 248.665 2036.23 250.369V252.5C2042.91 252.926 2049.62 255.27 2056.37 259.531C2063.12 263.793 2068.76 269.901 2073.31 277.855C2077.85 285.81 2080.12 295.54 2080.12 307.045C2080.12 317.983 2077.64 327.82 2072.67 336.555C2067.7 345.291 2059.85 352.216 2049.12 357.33C2038.4 362.443 2024.44 365 2007.26 365H1928.42ZM1954.84 341.562H2007.26C2024.51 341.562 2036.77 338.224 2044.01 331.548C2051.33 324.801 2054.98 316.634 2054.98 307.045C2054.98 299.659 2053.1 292.841 2049.34 286.591C2045.57 280.27 2040.21 275.227 2033.25 271.463C2026.29 267.628 2018.05 265.71 2008.53 265.71H1954.84V341.562ZM1954.84 242.699H2003.85C2011.8 242.699 2018.97 241.136 2025.37 238.011C2031.83 234.886 2036.94 230.483 2040.71 224.801C2044.54 219.119 2046.46 212.443 2046.46 204.773C2046.46 195.185 2043.12 187.053 2036.45 180.376C2029.77 173.629 2019.19 170.256 2004.7 170.256H1954.84V242.699ZM2173.74 368.409C2157.97 368.409 2144.37 364.929 2132.93 357.969C2121.57 350.938 2112.8 341.136 2106.62 328.565C2100.51 315.923 2097.46 301.222 2097.46 284.46C2097.46 267.699 2100.51 252.926 2106.62 240.142C2112.8 227.287 2121.39 217.273 2132.4 210.099C2143.48 202.855 2156.41 199.233 2171.18 199.233C2179.7 199.233 2188.12 200.653 2196.43 203.494C2204.74 206.335 2212.3 210.952 2219.12 217.344C2225.94 223.665 2231.37 232.045 2235.42 242.486C2239.47 252.926 2241.49 265.781 2241.49 281.051V291.705H2115.36V269.972H2215.92C2215.92 260.739 2214.08 252.5 2210.38 245.256C2206.76 238.011 2201.58 232.294 2194.83 228.104C2188.15 223.913 2180.27 221.818 2171.18 221.818C2161.17 221.818 2152.5 224.304 2145.19 229.276C2137.94 234.176 2132.37 240.568 2128.46 248.452C2124.55 256.335 2122.6 264.787 2122.6 273.807V288.295C2122.6 300.653 2124.73 311.129 2128.99 319.723C2133.32 328.246 2139.33 334.744 2147 339.219C2154.67 343.622 2163.58 345.824 2173.74 345.824C2180.34 345.824 2186.31 344.901 2191.63 343.054C2197.03 341.136 2201.68 338.295 2205.59 334.531C2209.5 330.696 2212.51 325.937 2214.65 320.256L2238.94 327.074C2236.38 335.312 2232.08 342.557 2226.04 348.807C2220.01 354.986 2212.55 359.815 2203.67 363.295C2194.79 366.705 2184.82 368.409 2173.74 368.409ZM2335.9 201.364V222.67H2251.1V201.364H2335.9ZM2275.82 162.159H2300.96V318.125C2300.96 325.227 2301.99 330.554 2304.05 334.105C2306.18 337.585 2308.88 339.929 2312.15 341.136C2315.48 342.273 2319 342.841 2322.69 342.841C2325.46 342.841 2327.74 342.699 2329.51 342.415C2331.29 342.06 2332.71 341.776 2333.77 341.562L2338.89 364.148C2337.18 364.787 2334.8 365.426 2331.75 366.065C2328.69 366.776 2324.82 367.131 2320.14 367.131C2313.03 367.131 2306.07 365.604 2299.25 362.55C2292.51 359.496 2286.9 354.844 2282.42 348.594C2278.02 342.344 2275.82 334.46 2275.82 324.943V162.159ZM2406.88 368.835C2396.51 368.835 2387.1 366.882 2378.64 362.976C2370.19 358.999 2363.48 353.281 2358.51 345.824C2353.54 338.295 2351.05 329.205 2351.05 318.551C2351.05 309.176 2352.9 301.577 2356.59 295.753C2360.28 289.858 2365.22 285.241 2371.4 281.903C2377.58 278.565 2384.4 276.08 2391.85 274.446C2399.38 272.741 2406.95 271.392 2414.55 270.398C2424.49 269.119 2432.55 268.161 2438.73 267.521C2444.98 266.811 2449.52 265.639 2452.37 264.006C2455.28 262.372 2456.73 259.531 2456.73 255.483V254.631C2456.73 244.119 2453.86 235.952 2448.1 230.128C2442.42 224.304 2433.79 221.392 2422.22 221.392C2410.21 221.392 2400.8 224.02 2393.99 229.276C2387.17 234.531 2382.37 240.142 2379.6 246.108L2355.74 237.585C2360 227.642 2365.68 219.901 2372.78 214.361C2379.96 208.75 2387.77 204.844 2396.22 202.642C2404.75 200.369 2413.13 199.233 2421.36 199.233C2426.62 199.233 2432.66 199.872 2439.48 201.151C2446.36 202.358 2453 204.879 2459.4 208.714C2465.86 212.55 2471.22 218.338 2475.48 226.08C2479.75 233.821 2481.88 244.19 2481.88 257.188V365H2456.73V342.841H2455.46C2453.75 346.392 2450.91 350.192 2446.93 354.24C2442.96 358.288 2437.66 361.733 2431.06 364.574C2424.45 367.415 2416.39 368.835 2406.88 368.835ZM2410.71 346.25C2420.65 346.25 2429.03 344.297 2435.85 340.391C2442.74 336.484 2447.93 331.442 2451.41 325.263C2454.96 319.084 2456.73 312.585 2456.73 305.767V282.756C2455.67 284.034 2453.32 285.206 2449.7 286.271C2446.15 287.266 2442.03 288.153 2437.34 288.935C2432.73 289.645 2428.22 290.284 2423.81 290.852C2419.48 291.349 2415.97 291.776 2413.27 292.131C2406.73 292.983 2400.63 294.368 2394.94 296.286C2389.33 298.132 2384.79 300.937 2381.31 304.702C2377.9 308.395 2376.19 313.437 2376.19 319.83C2376.19 328.565 2379.43 335.17 2385.89 339.645C2392.42 344.048 2400.7 346.25 2410.71 346.25Z" fill="#161619" fill-opacity="0.5"/>
</svg>
