<svg width="244" height="298" viewBox="0 0 244 298" fill="none" xmlns="http://www.w3.org/2000/svg">
<path d="M120.9 208.021C121.484 203.346 117.848 199.216 113.148 199.216H7.82803C1.20111 199.216 -2.41666 191.466 1.82953 186.366L37.2583 143.814C38.7428 142.031 40.9401 141 43.2568 141H236.172C242.799 141 246.417 148.75 242.17 153.85L124.517 295.161C119.519 301.163 109.797 296.928 110.766 289.17L120.9 208.021Z" fill="#E1E7ED"/>
<path d="M174 51.5C174 79.9427 150.943 103 122.5 103C94.0573 103 71 79.9427 71 51.5C71 23.0573 94.0573 0 122.5 0C150.943 0 174 23.0573 174 51.5Z" fill="#E1E7ED"/>
</svg>
