<svg width="500" height="500" viewBox="0 0 500 500" fill="none" xmlns="http://www.w3.org/2000/svg">
<rect width="500" height="500" rx="125" fill="#675DFF"/>
<path d="M248.9 309.021C249.484 304.346 245.848 300.216 241.148 300.216H135.828C129.201 300.216 125.583 292.466 129.83 287.366L165.258 244.814C166.743 243.031 168.94 242 171.257 242H364.172C370.799 242 374.417 249.75 370.17 254.85L252.517 396.161C247.519 402.163 237.797 397.928 238.766 390.17L248.9 309.021Z" fill="white"/>
<path d="M302 152.5C302 180.943 278.943 204 250.5 204C222.057 204 199 180.943 199 152.5C199 124.057 222.057 101 250.5 101C278.943 101 302 124.057 302 152.5Z" fill="white"/>
</svg>
